<svg xmlns="http://www.w3.org/2000/svg" viewBox="0 0 216.1 97.5"><defs><style>.cls-1{isolation:isolate;}.cls-2{fill:#c90000;}.cls-3{fill:#ffb700;}.cls-4{fill:#fd7809;}</style></defs><title>Asset 9</title><g id="Layer_2" data-name="Layer 2"><g id="Layer_1-2" data-name="Layer 1"><g class="cls-1"><path d="M10.4,28H0V22.4H10.4a1.83,1.83,0,0,0,2.1-2V0h6.2V20.3C18.6,25.4,15.9,28,10.4,28Z"/><path d="M38.3,11.2H48.7v5.6H38.3v5.6H50.7V28H32.1V0H50.7V5.6H38.3Z"/><path d="M70.5,5.6H64.3V0H82.9V5.6H76.7V28H70.5Z"/><path d="M103,0h10.4V5.6H103a1.83,1.83,0,0,0-2.1,2V9.2a1.83,1.83,0,0,0,2.1,2h2.1c5.5,0,8.3,2.5,8.3,7.6v1.6c0,5.1-2.8,7.6-8.3,7.6H94.7V22.4h10.4a1.83,1.83,0,0,0,2.1-2V18.8a1.83,1.83,0,0,0-2.1-2H103c-5.5,0-8.3-2.5-8.3-7.6V7.6C94.7,2.6,97.5,0,103,0Z"/><path d="M140.6,22.8h-8.5L130.6,28h-6.3l8.3-28h7.5l8.2,28h-6.2Zm-6.9-5.6h5.2l-2.6-8.8Z"/><path d="M180.9,20.4c0,5.1-2.8,7.6-8.3,7.6H160.2V0h12.4c5.5,0,8.3,2.5,8.3,7.6Zm-8.3,2a1.83,1.83,0,0,0,2.1-2V7.6a1.83,1.83,0,0,0-2.1-2h-6.2V22.4Z"/><path d="M208.3,22.8h-8.5L198.3,28h-6.2l8.2-28h7.5l8.3,27.9h-6.2Zm-6.9-5.6h5.2L204,8.4Z"/></g><path class="cls-2" d="M14.1,72.5V97.4H0V35.2H14.1V60.1H33V35.2H47.1V97.4H33V72.5Z"/><path d="M77,80.5V35.2H91.4V80.5c0,11.3-6.4,16.9-19.2,16.9H62.6c-12.8,0-19.2-5.6-19.2-16.9V35.2H57.8V80.5c0,3,1.6,4.4,4.7,4.4h9.6C75.4,84.9,77,83.5,77,80.5Z"/><path class="cls-3" d="M116.3,85.8H97.1L93.6,97.4h-14L98.3,35.2h16.8l18.6,62.2H119.8ZM100.8,73.4h11.7l-5.9-19.6Z"/><path d="M132.7,68.1,112.5,35.2h16.4l11,17.8,11-17.8h16.4L147.1,68.1V97.4H133l-.3-29.3Z"/><path class="cls-3" d="M188.8,35.2,169.4,73h-9.1l15.5-30.2H162.4V35.2Z"/><path class="cls-2" d="M196.2,72.8a10.91,10.91,0,0,1-1.6,6.3,10.91,10.91,0,0,1,1.6,6.3v2.1c0,6.6-3.5,10-10.5,10h-5.2c-7,0-10.5-3.3-10.5-10V85.4a10.91,10.91,0,0,1,1.6-6.3,10.91,10.91,0,0,1-1.6-6.3V70.7c0-6.6,3.5-10,10.5-10h5.2c7,0,10.5,3.3,10.5,10Zm-10.5,2.6a2.33,2.33,0,0,0,2.6-2.6V70.7a2.33,2.33,0,0,0-2.6-2.6h-5.2a2.33,2.33,0,0,0-2.6,2.6v2.1a2.33,2.33,0,0,0,2.6,2.6Zm0,7.3h-5.2a2.33,2.33,0,0,0-2.6,2.6v2.1a2.33,2.33,0,0,0,2.6,2.6h5.2a2.33,2.33,0,0,0,2.6-2.6V85.3A2.33,2.33,0,0,0,185.7,82.7Z"/><path class="cls-4" d="M189.8,52.3c0-6.6,3.5-10,10.5-10h5.2c7,0,10.5,3.3,10.5,10V69.1c0,6.6-3.5,10-10.5,10H192.4V71.8h13.1a2.33,2.33,0,0,0,2.6-2.6V65.6a21.12,21.12,0,0,1-2.6.2h-5.2c-7,0-10.5-3.3-10.5-10Zm10.5-2.6a2.33,2.33,0,0,0-2.6,2.6v3.4a2.33,2.33,0,0,0,2.6,2.6h5.2a2.33,2.33,0,0,0,2.6-2.6V52.3a2.33,2.33,0,0,0-2.6-2.6Z"/></g></g></svg>